<?xml version="1.0" encoding="UTF-8"?>
<!DOCTYPE svg PUBLIC "-//W3C//DTD SVG 1.1//EN" "http://www.w3.org/Graphics/SVG/1.1/DTD/svg11.dtd">
<svg xmlns="http://www.w3.org/2000/svg" version="1.1" width="204px" height="204px" style="shape-rendering:geometricPrecision; text-rendering:geometricPrecision; image-rendering:optimizeQuality; fill-rule:evenodd; clip-rule:evenodd" xmlns:xlink="http://www.w3.org/1999/xlink">
<g><path style="opacity:1" fill="#434342" d="M 168.5,28.5 C 168.5,42.8333 168.5,57.1667 168.5,71.5C 123.833,71.5 79.1667,71.5 34.5,71.5C 34.5,56.8333 34.5,42.1667 34.5,27.5C 36.3498,22.1513 40.0164,18.6513 45.5,17C 82.8333,16.3333 120.167,16.3333 157.5,17C 163.453,18.7831 167.119,22.6164 168.5,28.5 Z"/></g>
<g><path style="opacity:1" fill="#99bd70" d="M 155.5,31.5 C 156.657,39.9901 156.824,48.6567 156,57.5C 155.292,58.3805 154.458,59.0472 153.5,59.5C 118.498,59.6667 83.4984,59.5 48.5,59C 48,58.5 47.5,58 47,57.5C 46.5002,48.8397 46.3336,40.1731 46.5,31.5C 46.6107,30.8826 46.944,30.3826 47.5,30C 83.1667,29.3333 118.833,29.3333 154.5,30C 155.056,30.3826 155.389,30.8826 155.5,31.5 Z"/></g>
<g><path style="opacity:1" fill="#9bcc66" d="M 155.5,31.5 C 155.711,40.2 155.377,48.8667 154.5,57.5C 119.167,57.5 83.8333,57.5 48.5,57.5C 48.0975,48.5881 48.0975,39.5881 48.5,30.5C 84.2098,30.1798 119.876,30.5131 155.5,31.5 Z"/></g>
<g><path style="opacity:1" fill="#3f7321" d="M 139.5,41.5 C 142.5,41.5 145.5,41.5 148.5,41.5C 148.5,44.5 148.5,47.5 148.5,50.5C 145.5,50.5 142.5,50.5 139.5,50.5C 139.5,47.5 139.5,44.5 139.5,41.5 Z"/></g>
<g><path style="opacity:1" fill="#3e7121" d="M 122.5,41.5 C 125.5,41.5 128.5,41.5 131.5,41.5C 131.5,44.5 131.5,47.5 131.5,50.5C 128.5,50.5 125.5,50.5 122.5,50.5C 122.5,47.5 122.5,44.5 122.5,41.5 Z"/></g>
<g><path style="opacity:1" fill="#36422d" d="M 46.5,31.5 C 46.3336,40.1731 46.5002,48.8397 47,57.5C 47.5,58 48,58.5 48.5,59C 83.4984,59.5 118.498,59.6667 153.5,59.5C 118.002,60.6643 82.3357,60.831 46.5,60C 45.8742,59.2496 45.3742,58.4162 45,57.5C 44.8333,53.1667 44.6667,48.8333 44.5,44.5C 44.5079,39.7784 45.1745,35.4451 46.5,31.5 Z"/></g>
<g><path style="opacity:1" fill="#616161" d="M 168.5,28.5 C 169.665,76.9983 169.832,125.665 169,174.5C 167.077,180.721 162.91,184.554 156.5,186C 119.833,186.667 83.1667,186.667 46.5,186C 43.5544,185.194 40.8877,183.861 38.5,182C 37.1772,181.184 36.5106,180.017 36.5,178.5C 34.567,142.912 33.9003,107.246 34.5,71.5C 79.1667,71.5 123.833,71.5 168.5,71.5C 168.5,57.1667 168.5,42.8333 168.5,28.5 Z"/></g>
<g><path style="opacity:1" fill="#c25b5b" d="M 155.5,95.5 C 155.772,91.0983 155.439,86.7649 154.5,82.5C 148.863,81.3368 143.196,81.1701 137.5,82C 136.956,82.7172 136.289,83.2172 135.5,83.5C 135.511,81.9826 136.177,80.8159 137.5,80C 144.011,78.9685 150.344,79.4685 156.5,81.5C 156.833,83.8333 157.167,86.1667 157.5,88.5C 157.471,91.2695 156.805,93.6028 155.5,95.5 Z"/></g>
<g><path style="opacity:1" fill="#dedede" d="M 47.5,80.5 C 53.5092,80.3338 59.5092,80.5005 65.5,81C 66,81.5 66.5,82 67,82.5C 67.6667,86.8333 67.6667,91.1667 67,95.5C 66.2496,96.1258 65.4162,96.6258 64.5,97C 48.2813,101.947 42.6146,96.4467 47.5,80.5 Z"/></g>
<g><path style="opacity:1" fill="#dddddd" d="M 108.5,80.5 C 114.176,80.3339 119.843,80.5006 125.5,81C 126,81.5 126.5,82 127,82.5C 127.667,86.5 127.667,90.5 127,94.5C 126.167,95.3333 125.333,96.1667 124.5,97C 118.78,97.7876 113.114,97.6209 107.5,96.5C 105.958,94.121 105.291,91.4543 105.5,88.5C 105.667,86.5 105.833,84.5 106,82.5C 106.995,81.9341 107.828,81.2674 108.5,80.5 Z"/></g>
<g><path style="opacity:1" fill="#fb5353" d="M 155.5,95.5 C 149.167,96.8333 142.833,96.8333 136.5,95.5C 135.517,91.7016 135.183,87.7016 135.5,83.5C 136.289,83.2172 136.956,82.7172 137.5,82C 143.196,81.1701 148.863,81.3368 154.5,82.5C 155.439,86.7649 155.772,91.0983 155.5,95.5 Z"/></g>
<g><path style="opacity:1" fill="#dcdcdc" d="M 77.5,80.5 C 83.5092,80.3338 89.5092,80.5005 95.5,81C 96,81.5 96.5,82 97,82.5C 97.7722,86.8897 97.6055,91.223 96.5,95.5C 95.9747,96.1924 95.3081,96.6924 94.5,97C 89.1667,97.6667 83.8333,97.6667 78.5,97C 76.005,94.7813 75.005,91.948 75.5,88.5C 75.2893,85.5141 75.956,82.8474 77.5,80.5 Z"/></g>
<g><path style="opacity:1" fill="#c85e5d" d="M 136.5,95.5 C 142.833,96.8333 149.167,96.8333 155.5,95.5C 152.913,96.8164 149.913,97.483 146.5,97.5C 143.5,97.3333 140.5,97.1667 137.5,97C 136.944,96.6174 136.611,96.1174 136.5,95.5 Z"/></g>
<g><path style="opacity:0.522" fill="#7e7e7f" d="M 34.5,27.5 C 34.5,42.1667 34.5,56.8333 34.5,71.5C 33.9003,107.246 34.567,142.912 36.5,178.5C 35.0337,177.653 34.2004,176.32 34,174.5C 33.1684,125.332 33.335,76.3316 34.5,27.5 Z"/></g>
<g><path style="opacity:1" fill="#dedede" d="M 48.5,105.5 C 54.1764,105.334 59.8431,105.501 65.5,106C 66,106.5 66.5,107 67,107.5C 67.6667,111.833 67.6667,116.167 67,120.5C 66.5,121 66,121.5 65.5,122C 59.5,122.667 53.5,122.667 47.5,122C 45.9196,116.303 46.2529,110.803 48.5,105.5 Z"/></g>
<g><path style="opacity:1" fill="#bbbcbb" d="M 138.5,105.5 C 143.844,105.334 149.177,105.501 154.5,106C 155,106.5 155.5,107 156,107.5C 156.667,112.167 156.667,116.833 156,121.5C 149.556,122.81 143.056,122.81 136.5,121.5C 135.39,116.889 135.223,112.222 136,107.5C 136.995,106.934 137.828,106.267 138.5,105.5 Z"/></g>
<g><path style="opacity:1" fill="#dddddd" d="M 78.5,105.5 C 84.2289,105.212 89.8955,105.546 95.5,106.5C 96.1924,107.025 96.6924,107.692 97,108.5C 97.6667,112.5 97.6667,116.5 97,120.5C 96.5,121 96,121.5 95.5,122C 89.5,122.667 83.5,122.667 77.5,122C 77,121.5 76.5,121 76,120.5C 75.3333,116.5 75.3333,112.5 76,108.5C 77.045,107.627 77.8783,106.627 78.5,105.5 Z"/></g>
<g><path style="opacity:1" fill="#dddddd" d="M 108.5,105.5 C 113.844,105.334 119.177,105.501 124.5,106C 125.333,106.833 126.167,107.667 127,108.5C 127.667,112.5 127.667,116.5 127,120.5C 126.25,121.126 125.416,121.626 124.5,122C 118.833,122.667 113.167,122.667 107.5,122C 107,121.5 106.5,121 106,120.5C 105.333,116.5 105.333,112.5 106,108.5C 106.698,107.309 107.531,106.309 108.5,105.5 Z"/></g>
<g><path style="opacity:1" fill="#bbbbbb" d="M 136.5,131.5 C 142.842,131.334 149.175,131.5 155.5,132C 156.635,136.748 156.802,141.581 156,146.5C 155.5,147 155,147.5 154.5,148C 148.833,148.667 143.167,148.667 137.5,148C 137,147.5 136.5,147 136,146.5C 135.274,141.448 135.441,136.448 136.5,131.5 Z"/></g>
<g><path style="opacity:1" fill="#dedede" d="M 47.5,131.5 C 53.8682,131.17 60.2015,131.504 66.5,132.5C 67.6103,137.111 67.7769,141.778 67,146.5C 66.5,147 66,147.5 65.5,148C 59.8333,148.667 54.1667,148.667 48.5,148C 48,147.5 47.5,147 47,146.5C 46.2223,141.416 46.3889,136.416 47.5,131.5 Z"/></g>
<g><path style="opacity:1" fill="#dddddd" d="M 77.5,131.5 C 83.5092,131.334 89.5092,131.501 95.5,132C 96,132.5 96.5,133 97,133.5C 97.8785,138.287 97.5452,142.953 96,147.5C 90.2496,148.641 84.4163,148.807 78.5,148C 76.0259,145.959 75.0259,143.292 75.5,140C 75.3636,136.927 76.0302,134.094 77.5,131.5 Z"/></g>
<g><path style="opacity:1" fill="#dddddd" d="M 107.5,131.5 C 113.509,131.334 119.509,131.501 125.5,132C 126,132.5 126.5,133 127,133.5C 127.879,138.287 127.545,142.953 126,147.5C 119.916,148.642 113.749,148.809 107.5,148C 107,147.5 106.5,147 106,146.5C 104.955,141.215 105.455,136.215 107.5,131.5 Z"/></g>
<g><path style="opacity:1" fill="#bcbcbc" d="M 138.5,156.5 C 144.545,156.303 150.545,156.637 156.5,157.5C 156.827,162.544 156.494,167.544 155.5,172.5C 149.552,173.624 143.552,173.79 137.5,173C 137,172.5 136.5,172 136,171.5C 135.333,167.167 135.333,162.833 136,158.5C 136.995,157.934 137.828,157.267 138.5,156.5 Z"/></g>
<g><path style="opacity:1" fill="#dedede" d="M 48.5,156.5 C 54.1764,156.334 59.8431,156.501 65.5,157C 66,157.5 66.5,158 67,158.5C 67.6667,162.833 67.6667,167.167 67,171.5C 66.5,172 66,172.5 65.5,173C 59.5,173.667 53.5,173.667 47.5,173C 45.9196,167.303 46.2529,161.803 48.5,156.5 Z"/></g>
<g><path style="opacity:1" fill="#dddddd" d="M 78.5,156.5 C 83.8437,156.334 89.1771,156.501 94.5,157C 95.3333,157.833 96.1667,158.667 97,159.5C 97.6667,163.5 97.6667,167.5 97,171.5C 96.5,172 96,172.5 95.5,173C 89.5,173.667 83.5,173.667 77.5,173C 77,172.5 76.5,172 76,171.5C 75.3333,167.5 75.3333,163.5 76,159.5C 77.045,158.627 77.8783,157.627 78.5,156.5 Z"/></g>
<g><path style="opacity:1" fill="#dddddd" d="M 107.5,156.5 C 113.176,156.334 118.843,156.501 124.5,157C 125.333,157.833 126.167,158.667 127,159.5C 127.667,163.5 127.667,167.5 127,171.5C 126.5,172 126,172.5 125.5,173C 119.5,173.667 113.5,173.667 107.5,173C 104.906,167.564 104.906,162.064 107.5,156.5 Z"/></g>
</svg>
